HIERARCHY
ROOT pelvis
{
  OFFSET 0 100 0
  CHANNELS 6 Xposition Yposition Zposition Zrotation Xrotation Yrotation
  JOINT pelvis_right_femur
  {
    OFFSET -10.78128 -3.44521 -0.5502486
    CHANNELS 3 Zrotation Xrotation Yrotation
    JOINT right_femur_tibia
    {
      OFFSET -0.8047443 -44.0398 -0.1307829
      CHANNELS 3 Zrotation Xrotation Yrotation
      JOINT right_tibia_foot
      {
        OFFSET 3.006224 -47.83518 -5
        CHANNELS 3 Zrotation Xrotation Yrotation
        End Site
        {
          OFFSET 0 -5 15
        }
      }
    }
  }
  JOINT pelvis_left_femur
  {
    OFFSET 10.78128 -3.44521 -0.5502486
    CHANNELS 3 Zrotation Xrotation Yrotation
    JOINT left_femur_tibia
    {
      OFFSET 0.8047443 -44.0398 -0.1307829
      CHANNELS 3 Zrotation Xrotation Yrotation
      JOINT left_tibia_foot
      {
        OFFSET -4.370144 -48.10324 -4.275266
        CHANNELS 3 Zrotation Xrotation Yrotation
        End Site
        {
          OFFSET 0 -5 15
        }
      }
    }
  }
  JOINT pelvis_spine1
  {
    OFFSET 0 6.468898 -3.129235
    CHANNELS 3 Zrotation Xrotation Yrotation
    JOINT spine1
    {
      OFFSET 0 23.15396 4.99043
      CHANNELS 3 Zrotation Xrotation Yrotation
      JOINT spine2
      {
        OFFSET 0 20.79997 -5.064912
        CHANNELS 3 Zrotation Xrotation Yrotation
        JOINT neck
        {
          OFFSET 0 14.38658 9.616178
          CHANNELS 3 Zrotation Xrotation Yrotation
          End Site
          {
            OFFSET 0 20 0
          }
        }
      }
      JOINT right_manubrium
      {
        OFFSET -5.722621 16.35077 3.967754
        CHANNELS 3 Zrotation Xrotation Yrotation
        JOINT right_clavicle
        {
          OFFSET -13.16364 1.694482 -4.693211
          CHANNELS 3 Zrotation Xrotation Yrotation
          JOINT right_humerus
          {
            OFFSET -28.5034 -0.3100689 -2.792744
            CHANNELS 3 Zrotation Xrotation Yrotation
            JOINT right_radius
            {
              OFFSET -25.15693 0.02248979 -1.271978
              CHANNELS 3 Zrotation Xrotation Yrotation
              End Site
              {
                OFFSET -15 0 0
              }
            }
          }
        }
      }
      JOINT left_manubrium
      {
        OFFSET 5.722621 16.35077 3.967754
        CHANNELS 3 Zrotation Xrotation Yrotation
        JOINT left_clavicle
        {
          OFFSET 13.16364 1.694482 -4.693211
          CHANNELS 3 Zrotation Xrotation Yrotation
          JOINT left_humerus
          {
            OFFSET 29.39168 -1.063119 -2.237045
            CHANNELS 3 Zrotation Xrotation Yrotation
            JOINT left_radius
            {
              OFFSET 24.59957 -0.9528479 0.9047498
              CHANNELS 3 Zrotation Xrotation Yrotation
              End Site
              {
                OFFSET 15 -0 -0
              }
            }
          }
        }
      }
    }
  }
}
MOTION
Frames: 23
Frame Time: 0.0416666666667
0 103.5113 0 0.8887824 -1.220013 0.2042662 2.951198 -15.68517 7.928939 -0 39.21744 -0 -5.737095 -14.44783 -2.933002 -7.226447 6.23963 -22.45797 -0 4.558521 -0 6.849654 -18.09279 25.59273 -1.273208 -1.311779 4.671949 3.048967 7.204444 -8.344063 1.068912 21.1317 7.273998 2.257257 -27.29499 9.719277 4.955578 -19.54158 11.29329 88.1381 36.57894 -22.67336 -0 0 15.5064 -6.759546 10.41245 5.665528 3.417512 -18.66966 -1.129206 -97.83784 38.71794 28.63264 0 0 -25.50089 -7.985697 11.79282 27.49179
0.4355644 103.7943 1.213186 0.9368216 -1.269953 0.4318344 3.026263 -16.96332 8.382182 -0 41.73739 -0 -5.589969 -13.93118 -3.228448 -7.460873 7.887447 -23.04921 -0 6.117923 -0 6.93233 -18.29323 25.70584 -1.186992 -1.462407 4.612508 3.185833 7.257926 -8.548663 1.006483 21.04825 7.297477 2.271383 -27.77313 9.756209 4.906254 -19.74949 11.35143 88.66667 36.67853 -23.40018 -0 0 15.39246 -6.064999 10.16735 5.322555 3.434218 -18.95576 -1.143407 -98.1791 38.87981 29.10503 0 0 -26.03829 -7.889789 12.18737 27.44888
0.7486875 103.9575 2.821762 0.7712322 -1.129295 0.7038188 3.338272 -21.04491 7.45168 -0 38.55562 -0 -5.785198 -12.11721 -3.605288 -7.04671 11.43802 -22.14144 -0 6.606635 -0 6.250951 -19.33933 24.28357 -1.391735 -1.25136 4.531725 2.970374 7.375281 -8.290535 1.038933 21.20126 7.356105 2.466836 -26.79241 9.57639 5.060678 -19.11369 11.31589 88.0029 36.60691 -22.42835 -0 0 14.89327 -7.573501 10.60684 5.896269 3.706781 -18.94729 -1.305446 -96.36298 37.39019 26.74281 0 0 -25.19803 -6.534903 12.19195 25.27788
1.007395 103.9498 4.669205 0.6480191 -0.9743749 0.9777185 3.505469 -22.90603 6.773305 -0 35.44997 -0 -6.018357 -11.47547 -3.673053 -6.732234 12.77073 -21.46009 -0 6.230398 -0 5.885762 -19.84108 23.47475 -1.438208 -1.225096 4.514023 2.921641 7.447687 -8.233596 1.028008 21.228 7.380284 2.548035 -26.58094 9.509113 5.10505 -18.99712 11.33111 87.84345 36.61962 -22.17975 -0 0 14.76988 -7.943132 10.69139 6.036089 3.801837 -19.00512 -1.363079 -95.92199 36.82675 26.19434 0 0 -24.9214 -5.992489 12.31647 24.4469
1.207447 103.7051 6.924399 0.4964264 -0.8858888 1.263656 3.595583 -24.97614 5.732049 -0 31.38932 -0 -6.233339 -10.37912 -3.760577 -6.321666 14.25292 -20.30713 -0 5.790428 -0 5.200942 -20.40607 22.249 -1.50248 -1.185322 4.392527 2.893972 7.527756 -8.241109 1.018569 21.27268 7.426708 2.651409 -26.29958 9.446035 5.145161 -18.69046 11.3267 87.89875 36.59368 -22.22103 -0 0 14.29344 -8.353603 10.79388 6.114282 3.973998 -19.20343 -1.473783 -95.03267 36.14439 24.98136 0 0 -24.95702 -5.202036 12.48221 23.25152
1.358784 103.2457 9.611324 0.3605613 -0.8736666 1.565894 3.610666 -26.78173 4.690537 -0 27.66025 -0 -6.3826 -9.187477 -3.861039 -5.95877 15.58692 -19.09918 -0 5.61151 -0 4.424249 -20.8647 20.99267 -1.54037 -1.173026 4.263097 2.902824 7.588578 -8.299351 1.005242 21.29826 7.46905 2.72858 -26.15081 9.412362 5.16331 -18.43946 11.32287 88.09148 36.57488 -22.46257 -0 0 13.82424 -8.544289 10.83752 6.093601 4.118621 -19.42595 -1.567977 -94.32712 35.67212 23.99023 0 0 -25.18108 -4.575865 12.64812 22.3257
1.46574 102.5824 12.83133 0.2295738 -0.9769545 1.893474 3.538298 -28.52114 3.503161 -0 23.93674 -0 -6.450188 -7.642994 -4.012843 -5.609347 16.96881 -17.63295 -0 5.872495 -0 3.395597 -21.24004 19.49953 -1.577572 -1.160689 4.085191 2.932656 7.640941 -8.402092 0.9937134 21.32674 7.518359 2.802251 -26.01177 9.393207 5.171119 -18.11884 11.30765 88.42435 36.53492 -22.89926 -0 0 13.20259 -8.679644 10.87263 6.012833 4.284036 -19.71102 -1.67738 -93.49525 35.23184 22.78329 0 0 -25.61429 -3.921257 12.81314 21.36712
1.53597 101.753 16.65789 0.1127327 -1.206846 2.249401 3.400262 -30.04444 2.257481 -0 20.44819 -0 -6.429832 -5.84375 -4.219673 -5.302007 18.29015 -15.97824 -0 6.790302 -0 2.151279 -21.44801 17.84882 -1.612278 -1.145989 3.887457 2.973135 7.680106 -8.525616 0.9863658 21.35672 7.56749 2.865053 -25.8831 9.386728 5.170439 -17.76965 11.28345 88.82495 36.47615 -23.43208 -0 0 12.52312 -8.773393 10.90285 5.899858 4.448988 -20.01147 -1.787746 -92.64248 34.85063 21.51524 0 0 -26.16046 -3.312343 12.95021 20.48012
1.578907 100.8222 21.16753 0.01728023 -1.602791 2.631046 3.226847 -31.20295 1.002771 -0 17.32572 -0 -6.302668 -3.796814 -4.501675 -5.046146 19.45531 -14.11499 -0 8.7369 -0 0.6609401 -21.38002 16.04961 -1.651889 -1.118234 3.672578 3.01261 7.707988 -8.653892 0.9865842 21.39505 7.615652 2.920401 -25.72227 9.386175 5.165233 -17.37324 11.24762 89.2527 36.38838 -24.00146 -0 0 11.78559 -8.891449 10.94727 5.784687 4.618005 -20.31406 -1.902594 -91.72851 34.47689 20.12908 0 0 -26.77044 -2.724249 13.04243 19.61858
1.606746 99.90279 26.39703 -0.04219145 -2.19691 3.023845 3.096901 -31.70909 -0.09473878 -0 14.91637 -0 -6.055974 -1.655048 -4.870897 -4.854912 20.24377 -12.13127 -0 12.1909 -0 -1.021085 -20.87609 14.23482 -1.69828 -1.072224 3.465954 3.036727 7.725736 -8.759422 0.9964975 21.44323 7.657218 2.966772 -25.51022 9.384423 5.159262 -16.95765 11.20277 89.62677 36.27366 -24.49412 -0 0 11.06846 -9.079471 11.01692 5.706014 4.778387 -20.57797 -2.014014 -90.81806 34.09514 18.72617 0 0 -27.33268 -2.18784 13.07032 18.81952
1.632065 99.16503 32.31541 -0.05076692 -3.015382 3.394109 3.137162 -31.15942 -0.7949535 -0 13.60833 -0 -5.694047 0.3096558 -5.325933 -4.714493 20.31133 -10.17304 -0 17.73314 -0 -2.786449 -19.73639 12.61996 -1.752531 -1.004651 3.30534 3.02684 7.738291 -8.804892 1.016951 21.50103 7.684862 3.004142 -25.23007 9.370363 5.157934 -16.57225 11.15525 89.83531 36.14266 -24.753 -0 0 10.48959 -9.391787 11.12219 5.715507 4.912603 -20.74957 -2.110973 -90.01254 33.68491 17.47187 0 0 -27.68405 -1.73628 13.01915 18.12261
1.662079 98.82814 38.77868 -0.001559762 -4.04374 3.680642 3.491594 -29.07987 -0.814037 -0 13.71623 -0 -5.270349 1.638467 -5.823554 -4.57111 19.19297 -8.484107 -0 25.82933 -0 -4.438887 -17.77543 11.52587 -1.811403 -0.9191335 3.249888 2.961619 7.753634 -8.74191 1.045849 21.56257 7.688265 3.032104 -24.88699 9.330157 5.1683 -16.31165 11.11829 89.72761 36.02225 -24.56772 -0 0 10.23954 -9.868189 11.26443 5.875029 4.990508 -20.75399 -2.173407 -89.49537 33.25045 16.66981 0 0 -27.59282 -1.430373 12.88458 17.61067
1.69005 99.10769 45.50537 0.08753807 -5.191439 3.790604 4.221844 -25.09353 0.02055273 -0 15.15468 -0 -4.916561 1.739554 -6.252617 -4.336491 16.41192 -7.34234 -0 36.42392 -0 -5.737889 -14.92748 11.28569 -1.869317 -0.8244718 3.366914 2.820551 7.781296 -8.520144 1.078686 21.61823 7.656824 3.051282 -24.50231 9.24935 5.198654 -16.29185 11.10909 89.14401 35.94426 -23.71438 -0 0 10.53781 -10.53314 11.43642 6.246392 4.977244 -20.51135 -2.17695 -89.48002 32.8102 16.68118 0 0 -26.80425 -1.337184 12.67331 17.3794
1.693421 100.108 52.11944 0.1646156 -6.26787 3.615327 5.193838 -19.25267 1.567441 -0 17.15403 -0 -4.815869 0.144282 -6.446537 -3.943178 11.76679 -6.910038 -0 48.27441 -0 -6.489927 -11.41883 12.05314 -1.923051 -0.7271434 3.692288 2.59365 7.826201 -8.114085 1.11221 21.66191 7.585406 3.063137 -24.09218 9.120465 5.253942 -16.57743 11.13805 88.00542 35.91162 -22.07646 -0 0 11.50205 -11.39461 11.62808 6.86082 4.854207 -19.98147 -2.107554 -90.07508 32.36828 17.69509 0 0 -25.18422 -1.487617 12.39356 17.47507
1.653573 101.7065 58.31259 0.1686977 -7.041051 3.083105 6.093287 -12.33265 3.284998 -0 18.39441 -0 -5.060954 -2.997363 -6.276859 -3.390847 5.685289 -7.022999 -0 58.59703 -0 -6.666746 -7.875884 13.57606 -1.978602 -0.6193437 4.172993 2.293967 7.882595 -7.560174 1.150371 21.70259 7.481611 3.069621 -23.6299 8.952389 5.326413 -17.07431 11.19236 86.44284 35.86076 -19.82016 -0 0 12.95683 -12.45267 11.83869 7.678698 4.651016 -19.22908 -1.98618 -91.08437 31.87862 19.39387 0 0 -22.92196 -1.809404 12.04174 17.79338
1.588045 103.5527 64.03821 0.08687876 -7.388512 2.223833 6.62144 -5.568579 4.469055 -0 17.86388 -0 -5.5136 -6.697385 -5.745729 -2.698118 -0.8197339 -7.18386 -0 64.10379 -0 -6.424141 -5.110085 15.24015 -2.046232 -0.4861473 4.673046 1.961601 7.937557 -6.959856 1.201664 21.75955 7.364904 3.07211 -23.07 8.771161 5.392583 -17.55345 11.23886 84.80218 35.70014 -17.40862 -0 0 14.45711 -13.66885 12.07046 8.580528 4.441384 -18.42393 -1.86764 -92.04721 31.29767 21.02969 0 0 -20.52519 -2.141428 11.61999 18.10334
1.551705 105.2289 69.50665 -0.02931769 -7.379486 1.16584 6.678321 0.2134645 4.731349 -0 15.69036 -0 -5.906728 -9.820802 -4.950078 -1.852723 -6.842826 -6.938248 -0 63.22443 -0 -5.965995 -3.589545 16.52806 -2.124467 -0.3309674 5.09321 1.638626 7.985015 -6.403583 1.266597 21.83786 7.251003 3.070515 -22.43006 8.600625 5.431582 -17.87661 11.25834 83.3715 35.4081 -15.24026 -0 0 15.68745 -14.94108 12.30758 9.446457 4.275947 -17.70602 -1.789985 -92.68028 30.65859 22.14488 0 0 -18.40176 -2.379604 11.16393 18.26623
1.602498 106.425 74.97475 -0.1174404 -7.173982 0.05633437 6.352893 5.011984 4.215795 -0 12.85285 -0 -6.081254 -11.94899 -3.999764 -0.8725208 -12.11503 -6.225822 -0 56.97833 -0 -5.411073 -3.191435 17.36707 -2.20255 -0.1712741 5.444122 1.336098 8.029328 -5.901757 1.337892 21.92576 7.140279 3.063967 -21.771 8.44405 5.442031 -18.09446 11.25995 82.16516 35.02665 -13.34334 -0 0 16.69326 -16.18922 12.52799 10.24892 4.145153 -17.08092 -1.745552 -93.07945 30.01579 22.89088 0 0 -16.55302 -2.548114 10.71078 18.3297
1.778035 106.9953 80.58965 -0.1473387 -6.900329 -1.000787 5.799605 9.18348 3.332478 -0 10.31356 -0 -6.036937 -13.29961 -2.993469 0.1572554 -16.75986 -5.279456 -0 47.64172 -0 -4.796144 -3.493981 17.96201 -2.273756 -0.01722341 5.785554 1.039129 8.076274 -5.413611 1.410557 22.01259 7.024199 3.051503 -21.12502 8.291284 5.433133 -18.31516 11.26003 81.04826 34.58701 -11.53077 -0 0 17.67266 -17.41256 12.72273 11.03224 4.015191 -16.47842 -1.708662 -93.45716 29.38612 23.60956 0 0 -14.76516 -2.719366 10.26593 18.40154
2.094151 106.9383 86.38193 -0.1164518 -6.64431 -1.949139 5.139666 12.92188 2.450467 -0 8.745349 -0 -5.823146 -14.15273 -2.033097 1.102934 -20.82642 -4.372739 -0 37.40776 -0 -4.152106 -4.114928 18.49755 -2.336553 0.1297364 6.153126 0.7350758 8.127296 -4.910073 1.483836 22.09483 6.896678 3.031783 -20.49622 8.135596 5.410398 -18.5945 11.266 79.93637 34.09362 -9.679073 -0 0 18.74137 -18.63146 12.89096 11.83183 3.865967 -15.85071 -1.664259 -93.92264 28.76981 24.47836 0 0 -12.9024 -2.938355 9.820237 18.54582
2.545978 106.3796 92.32102 -0.03411895 -6.494328 -2.760077 4.43289 16.14118 1.820307 -0 8.730009 -0 -5.461142 -14.54542 -1.248059 1.790534 -24.10563 -3.722075 -0 28.18109 -0 -3.566961 -4.789301 19.0252 -2.390997 0.2704506 6.525024 0.4326154 8.179583 -4.410132 1.558683 22.17426 6.760867 3.003423 -19.88563 7.982924 5.369424 -18.89968 11.27246 78.88934 33.54654 -7.873195 -0 0 19.83015 -19.82517 13.03325 12.62148 3.707743 -15.22549 -1.620021 -94.41376 28.1784 25.39458 0 0 -11.05504 -3.189289 9.375968 18.74197
3.108112 105.5543 98.37746 0.08701618 -6.555524 -3.411864 3.686005 18.59253 1.569069 -0 10.80737 -0 -4.932135 -14.26253 -0.7861273 2.045893 -26.21516 -3.450008 -0 21.50948 -0 -3.191556 -5.357445 19.47038 -2.435818 0.4022314 6.831939 0.1630361 8.228939 -3.978394 1.634404 22.25344 6.629707 2.966324 -19.31101 7.850661 5.299716 -19.13431 11.26639 78.08005 32.97109 -6.37826 -0 0 20.71976 -20.91157 13.14984 13.31193 3.576043 -14.69943 -1.60149 -94.75007 27.64769 26.05843 0 0 -9.509654 -3.404275 8.960543 18.90017
3.742115 104.7568 104.5609 0.2381976 -6.900919 -3.874186 2.876901 20.03706 1.688461 -0 15.25833 -0 -4.202675 -13.02559 -0.7540365 1.777136 -26.82731 -3.56182 -0 18.09186 -0 -3.15634 -5.789068 19.71046 -2.468421 0.5177014 7.006646 -0.03836005 8.272254 -3.682796 1.706892 22.33134 6.519327 2.92297 -18.80792 7.756602 5.196833 -19.21197 11.23842 77.65992 32.42364 -5.451126 -0 0 21.20006 -21.78531 13.24175 13.80606 3.505879 -14.37118 -1.631203 -94.77785 27.22333 26.20897 0 0 -8.550504 -3.513998 8.615644 18.93147
